<?xml version="1.0" encoding="utf-8"?>
<!-- Generator: Adobe Illustrator 22.1.0, SVG Export Plug-In . SVG Version: 6.00 Build 0)  -->
<svg version="1.1" id="Layer_1" xmlns="http://www.w3.org/2000/svg" xmlns:xlink="http://www.w3.org/1999/xlink" x="0px" y="0px"
	 viewBox="0 0 800 650" style="enable-background:new 0 0 800 650;" xml:space="preserve">
<style type="text/css">
	.st0{fill:url(#SVGID_1_);}
	.st1{fill:url(#SVGID_2_);}
	.st2{fill:url(#SVGID_3_);}
	.st3{fill:url(#SVGID_4_);}
	.st4{fill:url(#SVGID_5_);}
	.st5{fill:url(#SVGID_6_);}
	.st6{fill:url(#SVGID_7_);}
	.st7{display:none;}
	.st8{display:inline;opacity:0.17;}
	.st9{stroke:#000000;stroke-miterlimit:10;}
	.st10{stroke:#000000;stroke-linecap:round;stroke-linejoin:round;stroke-miterlimit:10;}
	.st11{display:inline;}
	.st12{opacity:0.15;}
	.st13{fill:#B99B66;stroke:#E0E0E0;stroke-miterlimit:10;}
	.st14{fill:#B99B66;stroke:#E0E0E0;stroke-linecap:round;stroke-linejoin:round;stroke-miterlimit:10;}
	.st15{display:inline;opacity:0.2;}
	.st16{stroke:#000000;stroke-width:2;stroke-miterlimit:10;}
	.st17{fill:#27AE60;stroke:#E0E0E0;stroke-width:2;stroke-miterlimit:10;}
	.st18{fill:#E0E0E0;}
	.st19{fill:#FFAF21;}
	.st20{fill:#F2994A;}
	.st21{fill:#6B962A;stroke:#E0E0E0;stroke-width:2;stroke-miterlimit:10;}
	.st22{fill:#88B337;stroke:#E0E0E0;stroke-width:2;stroke-miterlimit:10;}
	.st23{fill:#80A834;stroke:#E0E0E0;stroke-width:2;stroke-miterlimit:10;}
	.st24{fill:#99C93E;stroke:#E0E0E0;stroke-width:2;stroke-miterlimit:10;}
	.st25{fill:#FFB782;stroke:#E0E0E0;stroke-width:2;stroke-miterlimit:10;}
	.st26{fill:#F2A46F;}
	.st27{display:inline;opacity:0.15;}
	.st28{opacity:0.2;}
	.st29{opacity:0.17;}
</style>
<g>
	
		<linearGradient id="SVGID_1_" gradientUnits="userSpaceOnUse" x1="477.114" y1="52.0599" x2="-735.886" y2="52.0599" gradientTransform="matrix(0.9567 -0.2912 0.2912 0.9567 -75.3831 139.5166)">
		<stop  offset="0" style="stop-color:#BB6BD9;stop-opacity:0.7"/>
		<stop  offset="0.8765" style="stop-color:#9B51E0"/>
	</linearGradient>
	<polygon class="st0" points="410.8,98.2 -749.7,451.5 -778.8,355.8 381.7,2.5 	"/>
	
		<linearGradient id="SVGID_2_" gradientUnits="userSpaceOnUse" x1="574.3141" y1="151.6848" x2="-638.6859" y2="151.6848" gradientTransform="matrix(0.9567 -0.2912 0.2912 0.9567 -75.3831 139.5166)">
		<stop  offset="0" style="stop-color:#BB6BD9;stop-opacity:0.8"/>
		<stop  offset="0.5389" style="stop-color:#9B51E0"/>
	</linearGradient>
	<polygon class="st1" points="532.8,165.2 -627.7,518.5 -656.8,422.8 503.7,69.5 	"/>
	
		<linearGradient id="SVGID_3_" gradientUnits="userSpaceOnUse" x1="706.9528" y1="251.6447" x2="-506.0471" y2="251.6447" gradientTransform="matrix(0.9567 -0.2912 0.2912 0.9567 -75.3831 139.5166)">
		<stop  offset="0" style="stop-color:#9B51E0"/>
		<stop  offset="0.4557" style="stop-color:#BB6BD9;stop-opacity:0.6"/>
	</linearGradient>
	<polygon class="st2" points="688.8,222.2 -471.7,575.5 -500.8,479.8 659.7,126.5 	"/>
	
		<linearGradient id="SVGID_4_" gradientUnits="userSpaceOnUse" x1="625.4214" y1="351.2169" x2="-587.5786" y2="351.2169" gradientTransform="matrix(0.9567 -0.2912 0.2912 0.9567 -75.3831 139.5166)">
		<stop  offset="0" style="stop-color:#BB6BD9;stop-opacity:0.3"/>
		<stop  offset="0.5317" style="stop-color:#9B51E0"/>
	</linearGradient>
	<polygon class="st3" points="639.8,341.2 -520.7,694.5 -549.8,598.8 610.7,245.5 	"/>
	
		<linearGradient id="SVGID_5_" gradientUnits="userSpaceOnUse" x1="751.7377" y1="451.3428" x2="-461.2624" y2="451.3428" gradientTransform="matrix(0.9567 -0.2912 0.2912 0.9567 -75.3831 139.5166)">
		<stop  offset="0" style="stop-color:#BB6BD9"/>
		<stop  offset="0.8011" style="stop-color:#9B51E0"/>
	</linearGradient>
	<polygon class="st4" points="789.8,400.2 -370.7,753.5 -399.8,657.8 760.7,304.5 	"/>
	
		<linearGradient id="SVGID_6_" gradientUnits="userSpaceOnUse" x1="513.3116" y1="551.238" x2="-699.6884" y2="551.238" gradientTransform="matrix(0.9567 -0.2912 0.2912 0.9567 -75.3831 139.5166)">
		<stop  offset="0" style="stop-color:#9B51E0"/>
		<stop  offset="0.6218" style="stop-color:#BB6BD9"/>
	</linearGradient>
	<polygon class="st5" points="590.8,565.2 -569.7,918.5 -598.8,822.8 561.7,469.5 	"/>
	
		<linearGradient id="SVGID_7_" gradientUnits="userSpaceOnUse" x1="653.2293" y1="651.3231" x2="-559.7707" y2="651.3231" gradientTransform="matrix(0.9567 -0.2912 0.2912 0.9567 -75.3831 139.5166)">
		<stop  offset="0" style="stop-color:#9B51E0"/>
		<stop  offset="0.4557" style="stop-color:#BB6BD9;stop-opacity:0.6"/>
	</linearGradient>
	<polygon class="st6" points="753.8,620.2 -406.7,973.5 -435.8,877.8 724.7,524.5 	"/>
</g>
<g class="st7">
	<g class="st8">
		<path class="st9" d="M81.1,161c-5.3-2.1,28.5,0,28.5,0c0-9.3-12.9-16.9-28.5-16.9c-30.1,0.7-32.2,16.3-30.6,21.1c0,0-0.7-2.9,0,0
			c1,4.3,12.7,12.7,30.6,12.7c13.5,0,25.2-5.7,27.9-13.5C109.1,164.3,86.4,163.1,81.1,161z"/>
		<path class="st10" d="M53,154.4c0,0-8.3,28.2,42.4,20.8"/>
		<path class="st9" d="M121,201.7c4.2,3.8-26.7-10-26.7-10c-3.3,8.7,6.1,20.3,20.8,25.8c28.4,9.9,35.9-4,36.1-9c0,0-0.4,3,0,0
			c0.6-4.4-7.4-16.3-24.2-22.6c-12.6-4.7-25.6-3.5-30.9,2.8C96,188.7,116.8,197.9,121,201.7z"/>
		<path class="st10" d="M145,217.7c0,0,17.7-23.5-32.4-34.4"/>
		<path class="st9" d="M151.4,153.6c-4.8,3,17-22.9,17-22.9c-7.4-5.5-21.2,0.3-30.6,12.8c-17.4,24.6-6.1,35.6-1.3,37.2
			c0,0-2.8-1.2,0,0c4,1.8,17.7-2.6,28.4-17c8-10.8,10.5-23.6,5.8-30.5C170.8,133.2,156.2,150.6,151.4,153.6z"/>
		<path class="st10" d="M129.3,172.3c0,0,17.7,23.5,42-21.6"/>
		<path class="st9" d="M79.1,156c-5.3-2.1,28.5,0,28.5,0c0-9.3-12.9-16.9-28.5-16.9c-30.1,0.7-32.2,16.3-30.6,21.1c0,0-0.7-2.9,0,0
			c1,4.3,12.7,12.7,30.6,12.7c13.5,0,25.2-5.7,27.9-13.5C107.1,159.3,84.4,158.1,79.1,156z"/>
		<path class="st10" d="M51,149.4c0,0-8.3,28.2,42.4,20.8"/>
		<path class="st9" d="M119,196.7c4.2,3.8-26.7-10-26.7-10c-3.3,8.7,6.1,20.3,20.8,25.8c28.4,9.9,35.9-4,36.1-9c0,0-0.4,3,0,0
			c0.6-4.4-7.4-16.3-24.2-22.6c-12.6-4.7-25.6-3.5-30.9,2.8C94,183.7,114.8,192.9,119,196.7z"/>
		<path class="st10" d="M143,212.7c0,0,17.7-23.5-32.4-34.4"/>
		<path class="st9" d="M149.4,148.6c-4.8,3,17-22.9,17-22.9c-7.4-5.5-21.2,0.3-30.6,12.8c-17.4,24.6-6.1,35.6-1.3,37.2
			c0,0-2.8-1.2,0,0c4,1.8,17.7-2.6,28.4-17c8-10.8,10.5-23.6,5.8-30.5C168.8,128.2,154.2,145.6,149.4,148.6z"/>
		<path class="st10" d="M127.3,167.3c0,0,17.7,23.5,42-21.6"/>
	</g>
	<g class="st11">
		<g class="st12">
			<path class="st9" d="M75.1,154c-5.3-2.1,28.5,0,28.5,0c0-9.3-12.9-16.9-28.5-16.9c-30.1,0.7-32.2,16.3-30.6,21.1c0,0-0.7-2.9,0,0
				c1,4.3,12.7,12.7,30.6,12.7c13.5,0,25.2-5.7,27.9-13.5C103.1,157.3,80.4,156.1,75.1,154z"/>
			<path class="st10" d="M47,147.4c0,0-8.3,28.2,42.4,20.8"/>
			<path class="st9" d="M115,194.7c4.2,3.8-26.7-10-26.7-10c-3.3,8.7,6.1,20.3,20.8,25.8c28.4,9.9,35.9-4,36.1-9c0,0-0.4,3,0,0
				c0.6-4.4-7.4-16.3-24.2-22.6c-12.6-4.7-25.6-3.5-30.9,2.8C90,181.7,110.8,190.9,115,194.7z"/>
			<path class="st10" d="M139,210.7c0,0,17.7-23.5-32.4-34.4"/>
			<path class="st9" d="M145.4,146.6c-4.8,3,17-22.9,17-22.9c-7.4-5.5-21.2,0.3-30.6,12.8c-17.4,24.6-6.1,35.6-1.3,37.2
				c0,0-2.8-1.2,0,0c4,1.8,17.7-2.6,28.4-17c8-10.8,10.5-23.6,5.8-30.5C164.8,126.2,150.2,143.6,145.4,146.6z"/>
			<path class="st10" d="M123.3,165.3c0,0,17.7,23.5,42-21.6"/>
		</g>
		<g>
			<g>
				<path class="st13" d="M73.1,149c-5.3-2.1,28.5,0,28.5,0c0-9.3-12.9-16.9-28.5-16.9c-30.1,0.7-32.2,16.3-30.6,21.1
					c0,0-0.7-2.9,0,0c1,4.3,12.7,12.7,30.6,12.7c13.5,0,25.2-5.7,27.9-13.5C101.1,152.3,78.4,151.1,73.1,149z"/>
				<path class="st14" d="M45,142.4c0,0-8.3,28.2,42.4,20.8"/>
				<path class="st13" d="M113,189.7c4.2,3.8-26.7-10-26.7-10c-3.3,8.7,6.1,20.3,20.8,25.8c28.4,9.9,35.9-4,36.1-9c0,0-0.4,3,0,0
					c0.6-4.4-7.4-16.3-24.2-22.6c-12.6-4.7-25.6-3.5-30.9,2.8C88,176.7,108.8,185.9,113,189.7z"/>
				<path class="st14" d="M137,205.7c0,0,17.7-23.5-32.4-34.4"/>
				<path class="st13" d="M143.4,141.6c-4.8,3,17-22.9,17-22.9c-7.4-5.5-21.2,0.3-30.6,12.8c-17.4,24.6-6.1,35.6-1.3,37.2
					c0,0-2.8-1.2,0,0c4,1.8,17.7-2.6,28.4-17c8-10.8,10.5-23.6,5.8-30.5C162.8,121.2,148.2,138.6,143.4,141.6z"/>
				<path class="st14" d="M121.3,160.3c0,0,17.7,23.5,42-21.6"/>
			</g>
		</g>
	</g>
</g>
<g class="st7">
	<g class="st15">
		<path class="st16" d="M377,277.5c0,0-14.5-8.3-29.1-8.3c-0.7,0-1.3,0.1-2,0.1c3.3-2.2,6.8-4.9,10.3-8.4
			c14.5-14.5,20.8-37.4,20.8-37.4s-22.8,6.2-37.4,20.8c-1.2,1.2-2.3,2.4-3.4,3.6c0.7-4.1,1.1-8.6,1.1-13.6
			c0-25.2-14.4-50.4-14.4-50.4s-14.4,25.2-14.4,50.4c0,5,0.4,9.5,1.1,13.6c-1-1.2-2.1-2.4-3.4-3.6c-14.5-14.5-37.4-20.8-37.4-20.8
			s6.2,22.8,20.8,37.4c3.5,3.5,7,6.2,10.3,8.4c-0.7,0-1.3-0.1-2-0.1c-14.5,0-29.1,8.3-29.1,8.3s14.5,8.3,29.1,8.3
			c3.6,0,6.7-0.4,9.5-1c-0.4,0.4-0.8,0.6-1.2,1c-7.3,7.3-10.4,18.7-10.4,18.7s11.4-3.1,18.7-10.4c8.4-8.4,8.3-16.6,8.3-16.6
			s-0.1,8.2,8.3,16.6c7.3,7.3,18.7,10.4,18.7,10.4s-3.1-11.4-10.4-18.7c-0.4-0.4-0.8-0.7-1.2-1c2.8,0.6,5.9,1,9.5,1
			C362.4,285.8,377,277.5,377,277.5z"/>
		<path d="M323.5,422.9H358c3.6,0,6.7-2.7,7.3-6.4l13.8-88h-55.6V422.9z"/>
		<path d="M268,328.5l13.8,88c0.6,3.7,3.7,6.4,7.3,6.4h34.4v-94.4H268z"/>
		<path d="M323.5,305.9h-63v22.6h63V305.9z"/>
		<path d="M323.5,305.9v22.6h63v-22.6H323.5z"/>
		<path d="M323.6,418.9H357c3.5,0,6.5-2.6,7.1-6l13.4-83.8h-53.9V418.9z"/>
		<path d="M269.7,329.1l13.4,83.8c0.6,3.5,3.6,6,7.1,6h33.4v-89.8H269.7z"/>
		<path d="M323.6,307.5h-61.1v21.6h61.1V307.5z"/>
		<path d="M323.6,307.5v21.6h61.1v-21.6H323.6z"/>
	</g>
	<g class="st11">
		<g>
			<path class="st17" d="M371,268.5c0,0-14.5-8.3-29.1-8.3c-0.7,0-1.3,0.1-2,0.1c3.3-2.2,6.8-4.9,10.3-8.4
				c14.5-14.5,20.8-37.4,20.8-37.4s-22.8,6.2-37.4,20.8c-1.2,1.2-2.3,2.4-3.4,3.6c0.7-4.1,1.1-8.6,1.1-13.6
				c0-25.2-14.4-50.4-14.4-50.4s-14.4,25.2-14.4,50.4c0,5,0.4,9.5,1.1,13.6c-1-1.2-2.1-2.4-3.4-3.6c-14.5-14.5-37.4-20.8-37.4-20.8
				s6.2,22.8,20.8,37.4c3.5,3.5,7,6.2,10.3,8.4c-0.7,0-1.3-0.1-2-0.1c-14.5,0-29.1,8.3-29.1,8.3s14.5,8.3,29.1,8.3
				c3.6,0,6.7-0.4,9.5-1c-0.4,0.4-0.8,0.6-1.2,1c-7.3,7.3-10.4,18.7-10.4,18.7s11.4-3.1,18.7-10.4c8.4-8.4,8.3-16.6,8.3-16.6
				s-0.1,8.2,8.3,16.6c7.3,7.3,18.7,10.4,18.7,10.4s-3.1-11.4-10.4-18.7c-0.4-0.4-0.8-0.7-1.2-1c2.8,0.6,5.9,1,9.5,1
				C356.4,276.8,371,268.5,371,268.5z"/>
			<g id="surface1_21_">
				<path class="st18" d="M317.5,413.9H352c3.6,0,6.7-2.7,7.3-6.4l13.8-88h-55.6V413.9z"/>
				<path class="st18" d="M262,319.5l13.8,88c0.6,3.7,3.7,6.4,7.3,6.4h34.4v-94.4H262z"/>
				<path class="st18" d="M317.5,296.9h-63v22.6h63V296.9z"/>
				<path class="st18" d="M317.5,296.9v22.6h63v-22.6H317.5z"/>
			</g>
			<g id="surface1_20_">
				<path class="st19" d="M317.6,409.9H351c3.5,0,6.5-2.6,7.1-6l13.4-83.8h-53.9V409.9z"/>
				<path class="st20" d="M263.7,320.1l13.4,83.8c0.6,3.5,3.6,6,7.1,6h33.4v-89.8H263.7z"/>
				<path class="st20" d="M317.6,298.5h-61.1v21.6h61.1V298.5z"/>
				<path class="st19" d="M317.6,298.5v21.6h61.1v-21.6H317.6z"/>
			</g>
		</g>
	</g>
</g>
<g id="surface1_2_" class="st7">
	<g class="st15">
		<path class="st16" d="M458.5,437.4h95.9v171.2h-95.9V437.4z"/>
		<path class="st16" d="M554.4,622.3h-95.9V451.1H527l27.4,27.4V622.3z"/>
		<path class="st16" d="M458.5,597.4v24.8h95.9V501.6L458.5,597.4z"/>
		<path class="st16" d="M527,608.6h-41.1c0-7.6-6.1-13.7-13.7-13.7V478.5c7.6,0,13.7-6.1,13.7-13.7H527c0,7.6,6.1,13.7,13.7,13.7
			v116.4C533.1,594.9,527,601,527,608.6z"/>
		<path class="st16" d="M540.7,536.7c0-15.1-15.3-27.4-34.2-27.4c-18.9,0-34.2,12.3-34.2,27.4s15.3,27.4,34.2,27.4
			C525.4,564.1,540.7,551.8,540.7,536.7z"/>
		<path class="st16" d="M513.3,488.7c0,3.8-3.1,6.8-6.8,6.8c-3.8,0-6.8-3.1-6.8-6.8s3.1-6.8,6.8-6.8
			C510.2,481.9,513.3,484.9,513.3,488.7z"/>
		<path class="st16" d="M513.3,584.6c0,3.8-3.1,6.8-6.8,6.8c-3.8,0-6.8-3.1-6.8-6.8c0-3.8,3.1-6.8,6.8-6.8
			C510.2,577.7,513.3,580.8,513.3,584.6z"/>
		<path class="st16" d="M527,451.1l27.4,27.4H527V451.1z"/>
		<path class="st16" d="M576.7,548.5L554.4,523v44.5l-22.3-22.3c-4.8-4.6-12.5-4.5-17.1,0.3c-4.5,4.7-4.5,12.1,0,16.8l29.1,29.1
			l-2.8,4.9c-6.6,11.5-5.4,25.8,2.8,36.2v6.8h41.1v-68.3C585.2,562.8,582.2,554.8,576.7,548.5z"/>
		<path d="M564.7,581.2c-0.9,0-1.8-0.4-2.4-1L552,569.9c-1.3-1.4-1.3-3.5,0.1-4.8c1.3-1.3,3.4-1.3,4.8,0l10.3,10.3
			c1.3,1.3,1.3,3.5,0,4.8C566.4,580.8,565.6,581.2,564.7,581.2z"/>
	</g>
	<g class="st11">
		<g>
			<path class="st21" d="M450.5,428.4h95.9v171.2h-95.9V428.4z"/>
			<path class="st22" d="M546.4,613.3h-95.9V442.1H519l27.4,27.4V613.3z"/>
			<path class="st23" d="M450.5,588.4v24.8h95.9V492.6L450.5,588.4z"/>
			<path class="st21" d="M519,599.6h-41.1c0-7.6-6.1-13.7-13.7-13.7V469.5c7.6,0,13.7-6.1,13.7-13.7H519c0,7.6,6.1,13.7,13.7,13.7
				v116.4C525.1,585.9,519,592,519,599.6z"/>
			<path class="st22" d="M532.7,527.7c0-15.1-15.3-27.4-34.2-27.4c-18.9,0-34.2,12.3-34.2,27.4s15.3,27.4,34.2,27.4
				C517.4,555.1,532.7,542.8,532.7,527.7z"/>
			<path class="st22" d="M505.3,479.7c0,3.8-3.1,6.8-6.8,6.8c-3.8,0-6.8-3.1-6.8-6.8s3.1-6.8,6.8-6.8
				C502.2,472.9,505.3,475.9,505.3,479.7z"/>
			<path class="st22" d="M505.3,575.6c0,3.8-3.1,6.8-6.8,6.8c-3.8,0-6.8-3.1-6.8-6.8c0-3.8,3.1-6.8,6.8-6.8
				C502.2,568.7,505.3,571.8,505.3,575.6z"/>
			<path class="st24" d="M519,442.1l27.4,27.4H519V442.1z"/>
			<path class="st25" d="M568.7,539.5L546.4,514v44.5l-22.3-22.3c-4.8-4.6-12.5-4.5-17.1,0.3c-4.5,4.7-4.5,12.1,0,16.8l29.1,29.1
				l-2.8,4.9c-6.6,11.5-5.4,25.8,2.8,36.2v6.8h41.1v-68.3C577.2,553.8,574.2,545.8,568.7,539.5z"/>
			<path class="st26" d="M556.7,572.2c-0.9,0-1.8-0.4-2.4-1L544,560.9c-1.3-1.4-1.3-3.5,0.1-4.8c1.3-1.3,3.4-1.3,4.8,0l10.3,10.3
				c1.3,1.3,1.3,3.5,0,4.8C558.4,571.8,557.6,572.2,556.7,572.2z"/>
		</g>
	</g>
</g>
<g class="st7">
	<g class="st27">
		<polygon points="236.5,285.1 230.7,252.2 221.4,261.9 210.8,251.7 202.3,260.5 212.9,270.7 203.5,280.4 		"/>
		<path d="M205.5,246.6c-1-0.9-2.5-0.9-3.5,0.1l-5.1,5.3c-0.9,1-0.9,2.5,0.1,3.5s2.5,0.9,3.5-0.1l5.1-5.3
			C206.5,249.1,206.5,247.5,205.5,246.6"/>
		<path d="M198.4,239.8c-1-0.9-2.5-0.9-3.5,0.1l-5.1,5.3c-0.9,1-0.9,2.5,0.1,3.5s2.5,0.9,3.5-0.1l5.1-5.3
			C199.4,242.3,199.4,240.7,198.4,239.8"/>
		<path d="M191.4,233c-1-0.9-2.5-0.9-3.5,0.1l-5.1,5.3c-0.9,1-0.9,2.5,0.1,3.5s2.5,0.9,3.5-0.1l5.1-5.3
			C192.4,235.5,192.4,233.9,191.4,233"/>
	</g>
	<g class="st11">
		<g>
			<polygon class="st18" points="234.5,280.1 228.7,247.2 219.4,256.9 208.8,246.7 200.3,255.5 210.9,265.7 201.5,275.4 			"/>
			<path class="st18" d="M203.5,241.6c-1-0.9-2.5-0.9-3.5,0.1l-5.1,5.3c-0.9,1-0.9,2.5,0.1,3.5s2.5,0.9,3.5-0.1l5.1-5.3
				C204.5,244.1,204.5,242.5,203.5,241.6"/>
			<path class="st18" d="M196.4,234.8c-1-0.9-2.5-0.9-3.5,0.1l-5.1,5.3c-0.9,1-0.9,2.5,0.1,3.5s2.5,0.9,3.5-0.1l5.1-5.3
				C197.4,237.3,197.4,235.7,196.4,234.8"/>
			<path class="st18" d="M189.4,228c-1-0.9-2.5-0.9-3.5,0.1l-5.1,5.3c-0.9,1-0.9,2.5,0.1,3.5s2.5,0.9,3.5-0.1l5.1-5.3
				C190.4,230.5,190.4,228.9,189.4,228"/>
		</g>
	</g>
</g>
<g class="st7">
	<g class="st27">
		<polygon points="436.5,468.1 430.7,435.2 421.4,444.9 410.8,434.7 402.3,443.5 412.9,453.7 403.5,463.4 		"/>
		<path d="M405.5,429.6c-1-0.9-2.5-0.9-3.5,0.1l-5.1,5.3c-0.9,1-0.9,2.5,0.1,3.5c1,0.9,2.5,0.9,3.5-0.1l5.1-5.3
			C406.5,432.1,406.5,430.5,405.5,429.6"/>
		<path d="M398.4,422.8c-1-0.9-2.5-0.9-3.5,0.1l-5.1,5.3c-0.9,1-0.9,2.5,0.1,3.5c1,0.9,2.5,0.9,3.5-0.1l5.1-5.3
			C399.4,425.3,399.4,423.7,398.4,422.8"/>
		<path d="M391.4,416c-1-0.9-2.5-0.9-3.5,0.1l-5.1,5.3c-0.9,1-0.9,2.5,0.1,3.5c1,0.9,2.5,0.9,3.5-0.1l5.1-5.3
			C392.4,418.5,392.4,416.9,391.4,416"/>
	</g>
	<g class="st11">
		<g>
			<polygon class="st18" points="434.5,463.1 428.7,430.2 419.4,439.9 408.8,429.7 400.3,438.5 410.9,448.7 401.5,458.4 			"/>
			<path class="st18" d="M403.5,424.6c-1-0.9-2.5-0.9-3.5,0.1l-5.1,5.3c-0.9,1-0.9,2.5,0.1,3.5c1,0.9,2.5,0.9,3.5-0.1l5.1-5.3
				C404.5,427.1,404.5,425.5,403.5,424.6"/>
			<path class="st18" d="M396.4,417.8c-1-0.9-2.5-0.9-3.5,0.1l-5.1,5.3c-0.9,1-0.9,2.5,0.1,3.5c1,0.9,2.5,0.9,3.5-0.1l5.1-5.3
				C397.4,420.3,397.4,418.7,396.4,417.8"/>
			<path class="st18" d="M389.4,411c-1-0.9-2.5-0.9-3.5,0.1l-5.1,5.3c-0.9,1-0.9,2.5,0.1,3.5c1,0.9,2.5,0.9,3.5-0.1l5.1-5.3
				C390.4,413.5,390.4,411.9,389.4,411"/>
		</g>
	</g>
</g>
<g id="surface1_3_">
	<g class="st28">
		<path class="st16" d="M488.5,250.4h95.9v171.2h-95.9V250.4z"/>
		<path class="st16" d="M584.4,435.3h-95.9V264.1H557l27.4,27.4V435.3z"/>
		<path class="st16" d="M488.5,410.4v24.8h95.9V314.6L488.5,410.4z"/>
		<path class="st16" d="M557,421.6h-41.1c0-7.6-6.1-13.7-13.7-13.7V291.5c7.6,0,13.7-6.1,13.7-13.7H557c0,7.6,6.1,13.7,13.7,13.7
			v116.4C563.1,407.9,557,414,557,421.6z"/>
		<path class="st16" d="M570.7,349.7c0-15.1-15.3-27.4-34.2-27.4c-18.9,0-34.2,12.3-34.2,27.4c0,15.1,15.3,27.4,34.2,27.4
			C555.4,377.1,570.7,364.8,570.7,349.7z"/>
		<path class="st16" d="M543.3,301.7c0,3.8-3.1,6.8-6.8,6.8c-3.8,0-6.8-3.1-6.8-6.8s3.1-6.8,6.8-6.8
			C540.2,294.9,543.3,297.9,543.3,301.7z"/>
		<path class="st16" d="M543.3,397.6c0,3.8-3.1,6.8-6.8,6.8c-3.8,0-6.8-3.1-6.8-6.8c0-3.8,3.1-6.8,6.8-6.8
			C540.2,390.7,543.3,393.8,543.3,397.6z"/>
		<path class="st16" d="M557,264.1l27.4,27.4H557V264.1z"/>
		<path class="st16" d="M606.7,361.5L584.4,336v44.5l-22.3-22.3c-4.8-4.6-12.5-4.5-17.1,0.3c-4.5,4.7-4.5,12.1,0,16.8l29.1,29.1
			l-2.8,4.9c-6.6,11.5-5.4,25.8,2.8,36.2v6.8h41.1v-68.3C615.2,375.8,612.2,367.8,606.7,361.5z"/>
		<path d="M594.7,394.2c-0.9,0-1.8-0.4-2.4-1L582,382.9c-1.3-1.4-1.3-3.5,0.1-4.8c1.3-1.3,3.4-1.3,4.8,0l10.3,10.3
			c1.3,1.3,1.3,3.5,0,4.8C596.4,393.8,595.6,394.2,594.7,394.2z"/>
	</g>
	<g>
		<g>
			<path class="st21" d="M480.5,241.4h95.9v171.2h-95.9V241.4z"/>
			<path class="st22" d="M576.4,426.3h-95.9V255.1H549l27.4,27.4V426.3z"/>
			<path class="st23" d="M480.5,401.4v24.8h95.9V305.6L480.5,401.4z"/>
			<path class="st21" d="M549,412.6h-41.1c0-7.6-6.1-13.7-13.7-13.7V282.5c7.6,0,13.7-6.1,13.7-13.7H549c0,7.6,6.1,13.7,13.7,13.7
				v116.4C555.1,398.9,549,405,549,412.6z"/>
			<path class="st22" d="M562.7,340.7c0-15.1-15.3-27.4-34.2-27.4c-18.9,0-34.2,12.3-34.2,27.4c0,15.1,15.3,27.4,34.2,27.4
				C547.4,368.1,562.7,355.8,562.7,340.7z"/>
			<path class="st22" d="M535.3,292.7c0,3.8-3.1,6.8-6.8,6.8c-3.8,0-6.8-3.1-6.8-6.8s3.1-6.8,6.8-6.8
				C532.2,285.9,535.3,288.9,535.3,292.7z"/>
			<path class="st22" d="M535.3,388.6c0,3.8-3.1,6.8-6.8,6.8c-3.8,0-6.8-3.1-6.8-6.8c0-3.8,3.1-6.8,6.8-6.8
				C532.2,381.7,535.3,384.8,535.3,388.6z"/>
			<path class="st24" d="M549,255.1l27.4,27.4H549V255.1z"/>
			<path class="st25" d="M598.7,352.5L576.4,327v44.5l-22.3-22.3c-4.8-4.6-12.5-4.5-17.1,0.3c-4.5,4.7-4.5,12.1,0,16.8l29.1,29.1
				l-2.8,4.9c-6.6,11.5-5.4,25.8,2.8,36.2v6.8h41.1v-68.3C607.2,366.8,604.2,358.8,598.7,352.5z"/>
			<path class="st26" d="M586.7,385.2c-0.9,0-1.8-0.4-2.4-1L574,373.9c-1.3-1.4-1.3-3.5,0.1-4.8c1.3-1.3,3.4-1.3,4.8,0l10.3,10.3
				c1.3,1.3,1.3,3.5,0,4.8C588.4,384.8,587.6,385.2,586.7,385.2z"/>
		</g>
	</g>
</g>
<g>
	<g class="st28">
		<path class="st16" d="M377,323.5c0,0-14.5-8.3-29.1-8.3c-0.7,0-1.3,0.1-2,0.1c3.3-2.2,6.8-4.9,10.3-8.4
			c14.5-14.5,20.8-37.4,20.8-37.4s-22.8,6.2-37.4,20.8c-1.2,1.2-2.3,2.4-3.4,3.6c0.7-4.1,1.1-8.6,1.1-13.6
			c0-25.2-14.4-50.4-14.4-50.4s-14.4,25.2-14.4,50.4c0,5,0.4,9.5,1.1,13.6c-1-1.2-2.1-2.4-3.4-3.6c-14.5-14.5-37.4-20.8-37.4-20.8
			s6.2,22.8,20.8,37.4c3.5,3.5,7,6.2,10.3,8.4c-0.7,0-1.3-0.1-2-0.1c-14.5,0-29.1,8.3-29.1,8.3s14.5,8.3,29.1,8.3
			c3.6,0,6.7-0.4,9.5-1c-0.4,0.4-0.8,0.6-1.2,1c-7.3,7.3-10.4,18.7-10.4,18.7s11.4-3.1,18.7-10.4c8.4-8.4,8.3-16.6,8.3-16.6
			s-0.1,8.2,8.3,16.6c7.3,7.3,18.7,10.4,18.7,10.4s-3.1-11.4-10.4-18.7c-0.4-0.4-0.8-0.7-1.2-1c2.8,0.6,5.9,1,9.5,1
			C362.4,331.8,377,323.5,377,323.5z"/>
		<path d="M323.5,468.9H358c3.6,0,6.7-2.7,7.3-6.4l13.8-88h-55.6V468.9z"/>
		<path d="M268,374.5l13.8,88c0.6,3.7,3.7,6.4,7.3,6.4h34.4v-94.4H268z"/>
		<path d="M323.5,351.9h-63v22.6h63V351.9z"/>
		<path d="M323.5,351.9v22.6h63v-22.6H323.5z"/>
		<path d="M323.6,464.9H357c3.5,0,6.5-2.6,7.1-6l13.4-83.8h-53.9V464.9z"/>
		<path d="M269.7,375.1l13.4,83.8c0.6,3.5,3.6,6,7.1,6h33.4v-89.8H269.7z"/>
		<path d="M323.6,353.5h-61.1v21.6h61.1V353.5z"/>
		<path d="M323.6,353.5v21.6h61.1v-21.6H323.6z"/>
	</g>
	<g>
		<g>
			<path class="st17" d="M371,314.5c0,0-14.5-8.3-29.1-8.3c-0.7,0-1.3,0.1-2,0.1c3.3-2.2,6.8-4.9,10.3-8.4
				c14.5-14.5,20.8-37.4,20.8-37.4s-22.8,6.2-37.4,20.8c-1.2,1.2-2.3,2.4-3.4,3.6c0.7-4.1,1.1-8.6,1.1-13.6
				c0-25.2-14.4-50.4-14.4-50.4s-14.4,25.2-14.4,50.4c0,5,0.4,9.5,1.1,13.6c-1-1.2-2.1-2.4-3.4-3.6c-14.5-14.5-37.4-20.8-37.4-20.8
				s6.2,22.8,20.8,37.4c3.5,3.5,7,6.2,10.3,8.4c-0.7,0-1.3-0.1-2-0.1c-14.5,0-29.1,8.3-29.1,8.3s14.5,8.3,29.1,8.3
				c3.6,0,6.7-0.4,9.5-1c-0.4,0.4-0.8,0.6-1.2,1c-7.3,7.3-10.4,18.7-10.4,18.7s11.4-3.1,18.7-10.4c8.4-8.4,8.3-16.6,8.3-16.6
				s-0.1,8.2,8.3,16.6c7.3,7.3,18.7,10.4,18.7,10.4s-3.1-11.4-10.4-18.7c-0.4-0.4-0.8-0.7-1.2-1c2.8,0.6,5.9,1,9.5,1
				C356.4,322.8,371,314.5,371,314.5z"/>
			<g id="surface1_27_">
				<path class="st18" d="M317.5,459.9H352c3.6,0,6.7-2.7,7.3-6.4l13.8-88h-55.6V459.9z"/>
				<path class="st18" d="M262,365.5l13.8,88c0.6,3.7,3.7,6.4,7.3,6.4h34.4v-94.4H262z"/>
				<path class="st18" d="M317.5,342.9h-63v22.6h63V342.9z"/>
				<path class="st18" d="M317.5,342.9v22.6h63v-22.6H317.5z"/>
			</g>
			<g id="surface1_26_">
				<path class="st19" d="M317.6,455.9H351c3.5,0,6.5-2.6,7.1-6l13.4-83.8h-53.9V455.9z"/>
				<path class="st20" d="M263.7,366.1l13.4,83.8c0.6,3.5,3.6,6,7.1,6h33.4v-89.8H263.7z"/>
				<path class="st20" d="M317.6,344.5h-61.1v21.6h61.1V344.5z"/>
				<path class="st19" d="M317.6,344.5v21.6h61.1v-21.6H317.6z"/>
			</g>
		</g>
	</g>
</g>
<g>
	<g class="st29">
		<path class="st9" d="M71.1,339c-5.3-2.1,28.5,0,28.5,0c0-9.3-12.9-16.9-28.5-16.9c-30.1,0.7-32.2,16.3-30.6,21.1c0,0-0.7-2.9,0,0
			c1,4.3,12.7,12.7,30.6,12.7c13.5,0,25.2-5.7,27.9-13.5C99.1,342.3,76.4,341.1,71.1,339z"/>
		<path class="st10" d="M43,332.4c0,0-8.3,28.2,42.4,20.8"/>
		<path class="st9" d="M111,379.7c4.2,3.8-26.7-10-26.7-10c-3.3,8.7,6.1,20.3,20.8,25.8c28.4,9.9,35.9-4,36.1-9c0,0-0.4,3,0,0
			c0.6-4.4-7.4-16.3-24.2-22.6c-12.6-4.7-25.6-3.5-30.9,2.8C86,366.7,106.8,375.9,111,379.7z"/>
		<path class="st10" d="M135,395.7c0,0,17.7-23.5-32.4-34.4"/>
		<path class="st9" d="M141.4,331.6c-4.8,3,17-22.9,17-22.9c-7.4-5.5-21.2,0.3-30.6,12.8c-17.4,24.6-6.1,35.6-1.3,37.2
			c0,0-2.8-1.2,0,0c4,1.8,17.7-2.6,28.4-17c8-10.8,10.5-23.6,5.8-30.5C160.8,311.2,146.2,328.6,141.4,331.6z"/>
		<path class="st10" d="M119.3,350.3c0,0,17.7,23.5,42-21.6"/>
		<path class="st9" d="M69.1,334c-5.3-2.1,28.5,0,28.5,0c0-9.3-12.9-16.9-28.5-16.9c-30.1,0.7-32.2,16.3-30.6,21.1c0,0-0.7-2.9,0,0
			c1,4.3,12.7,12.7,30.6,12.7c13.5,0,25.2-5.7,27.9-13.5C97.1,337.3,74.4,336.1,69.1,334z"/>
		<path class="st10" d="M41,327.4c0,0-8.3,28.2,42.4,20.8"/>
		<path class="st9" d="M109,374.7c4.2,3.8-26.7-10-26.7-10c-3.3,8.7,6.1,20.3,20.8,25.8c28.4,9.9,35.9-4,36.1-9c0,0-0.4,3,0,0
			c0.6-4.4-7.4-16.3-24.2-22.6c-12.6-4.7-25.6-3.5-30.9,2.8C84,361.7,104.8,370.9,109,374.7z"/>
		<path class="st10" d="M133,390.7c0,0,17.7-23.5-32.4-34.4"/>
		<path class="st9" d="M139.4,326.6c-4.8,3,17-22.9,17-22.9c-7.4-5.5-21.2,0.3-30.6,12.8c-17.4,24.6-6.1,35.6-1.3,37.2
			c0,0-2.8-1.2,0,0c4,1.8,17.7-2.6,28.4-17c8-10.8,10.5-23.6,5.8-30.5C158.8,306.2,144.2,323.6,139.4,326.6z"/>
		<path class="st10" d="M117.3,345.3c0,0,17.7,23.5,42-21.6"/>
	</g>
	<g>
		<g class="st12">
			<path class="st9" d="M65.1,332c-5.3-2.1,28.5,0,28.5,0c0-9.3-12.9-16.9-28.5-16.9c-30.1,0.7-32.2,16.3-30.6,21.1c0,0-0.7-2.9,0,0
				c1,4.3,12.7,12.7,30.6,12.7c13.5,0,25.2-5.7,27.9-13.5C93.1,335.3,70.4,334.1,65.1,332z"/>
			<path class="st10" d="M37,325.4c0,0-8.3,28.2,42.4,20.8"/>
			<path class="st9" d="M105,372.7c4.2,3.8-26.7-10-26.7-10C75,371.4,84.4,383,99,388.5c28.4,9.9,35.9-4,36.1-9c0,0-0.4,3,0,0
				c0.6-4.4-7.4-16.3-24.2-22.6c-12.6-4.7-25.6-3.5-30.9,2.8C80,359.7,100.8,368.9,105,372.7z"/>
			<path class="st10" d="M129,388.7c0,0,17.7-23.5-32.4-34.4"/>
			<path class="st9" d="M135.4,324.6c-4.8,3,17-22.9,17-22.9c-7.4-5.5-21.2,0.3-30.6,12.8c-17.4,24.6-6.1,35.6-1.3,37.2
				c0,0-2.8-1.2,0,0c4,1.8,17.7-2.6,28.4-17c8-10.8,10.5-23.6,5.8-30.5C154.8,304.2,140.2,321.6,135.4,324.6z"/>
			<path class="st10" d="M113.3,343.3c0,0,17.7,23.5,42-21.6"/>
		</g>
		<g>
			<g>
				<path class="st13" d="M63.1,327c-5.3-2.1,28.5,0,28.5,0c0-9.3-12.9-16.9-28.5-16.9c-30.1,0.7-32.2,16.3-30.6,21.1
					c0,0-0.7-2.9,0,0c1,4.3,12.7,12.7,30.6,12.7c13.5,0,25.2-5.7,27.9-13.5C91.1,330.3,68.4,329.1,63.1,327z"/>
				<path class="st14" d="M35,320.4c0,0-8.3,28.2,42.4,20.8"/>
				<path class="st13" d="M103,367.7c4.2,3.8-26.7-10-26.7-10C73,366.4,82.4,378,97,383.5c28.4,9.9,35.9-4,36.1-9c0,0-0.4,3,0,0
					c0.6-4.4-7.4-16.3-24.2-22.6c-12.6-4.7-25.6-3.5-30.9,2.8C78,354.7,98.8,363.9,103,367.7z"/>
				<path class="st14" d="M127,383.7c0,0,17.7-23.5-32.4-34.4"/>
				<path class="st13" d="M133.4,319.6c-4.8,3,17-22.9,17-22.9c-7.4-5.5-21.2,0.3-30.6,12.8c-17.4,24.6-6.1,35.6-1.3,37.2
					c0,0-2.8-1.2,0,0c4,1.8,17.7-2.6,28.4-17c8-10.8,10.5-23.6,5.8-30.5C152.8,299.2,138.2,316.6,133.4,319.6z"/>
				<path class="st14" d="M111.3,338.3c0,0,17.7,23.5,42-21.6"/>
			</g>
		</g>
	</g>
</g>
<g>
	<g class="st12">
		<polygon points="236.5,345.3 209.5,325.7 209.5,339.2 194.8,339.3 194.8,351.5 209.5,351.5 209.6,365 		"/>
		<path d="M187.4,339.3c-1.3,0-2.5,1.1-2.4,2.5l0,7.4c0,1.3,1.1,2.5,2.5,2.4c1.3,0,2.5-1.1,2.4-2.5l0-7.4
			C189.9,340.4,188.8,339.3,187.4,339.3"/>
		<path d="M177.6,339.3c-1.3,0-2.5,1.1-2.4,2.5l0,7.4c0,1.3,1.1,2.5,2.5,2.4s2.5-1.1,2.4-2.5l0-7.4
			C180.1,340.4,179,339.3,177.6,339.3"/>
		<path d="M167.8,339.3c-1.3,0-2.5,1.1-2.4,2.5l0,7.4c0,1.3,1.1,2.5,2.5,2.4s2.5-1.1,2.4-2.5l0-7.4
			C170.3,340.4,169.2,339.3,167.8,339.3"/>
	</g>
	<g>
		<g>
			<polygon class="st18" points="234.5,340.3 207.5,320.7 207.5,334.2 192.8,334.3 192.8,346.5 207.5,346.5 207.6,360 			"/>
			<path class="st18" d="M185.4,334.3c-1.3,0-2.5,1.1-2.4,2.5l0,7.4c0,1.3,1.1,2.5,2.5,2.4c1.3,0,2.5-1.1,2.4-2.5l0-7.4
				C187.9,335.4,186.8,334.3,185.4,334.3"/>
			<path class="st18" d="M175.6,334.3c-1.3,0-2.5,1.1-2.4,2.5l0,7.4c0,1.3,1.1,2.5,2.5,2.4s2.5-1.1,2.4-2.5l0-7.4
				C178.1,335.4,177,334.3,175.6,334.3"/>
			<path class="st18" d="M165.8,334.3c-1.3,0-2.5,1.1-2.4,2.5l0,7.4c0,1.3,1.1,2.5,2.5,2.4s2.5-1.1,2.4-2.5l0-7.4
				C168.3,335.4,167.2,334.3,165.8,334.3"/>
		</g>
	</g>
</g>
<g>
	<g class="st12">
		<polygon points="470.5,347.3 443.5,327.7 443.5,341.2 428.8,341.3 428.8,353.5 443.5,353.5 443.6,367 		"/>
		<path d="M421.4,341.3c-1.3,0-2.5,1.1-2.4,2.5l0,7.4c0,1.3,1.1,2.5,2.5,2.4c1.3,0,2.5-1.1,2.4-2.5l0-7.4
			C423.9,342.4,422.8,341.3,421.4,341.3"/>
		<path d="M411.6,341.3c-1.3,0-2.5,1.1-2.4,2.5l0,7.4c0,1.3,1.1,2.5,2.5,2.4c1.3,0,2.5-1.1,2.4-2.5l0-7.4
			C414.1,342.4,413,341.3,411.6,341.3"/>
		<path d="M401.8,341.3c-1.3,0-2.5,1.1-2.4,2.5l0,7.4c0,1.3,1.1,2.5,2.5,2.4c1.3,0,2.5-1.1,2.4-2.5l0-7.4
			C404.3,342.4,403.2,341.3,401.8,341.3"/>
	</g>
	<g>
		<g>
			<polygon class="st18" points="468.5,342.3 441.5,322.7 441.5,336.2 426.8,336.3 426.8,348.5 441.5,348.5 441.6,362 			"/>
			<path class="st18" d="M419.4,336.3c-1.3,0-2.5,1.1-2.4,2.5l0,7.4c0,1.3,1.1,2.5,2.5,2.4c1.3,0,2.5-1.1,2.4-2.5l0-7.4
				C421.9,337.4,420.8,336.3,419.4,336.3"/>
			<path class="st18" d="M409.6,336.3c-1.3,0-2.5,1.1-2.4,2.5l0,7.4c0,1.3,1.1,2.5,2.5,2.4c1.3,0,2.5-1.1,2.4-2.5l0-7.4
				C412.1,337.4,411,336.3,409.6,336.3"/>
			<path class="st18" d="M399.8,336.3c-1.3,0-2.5,1.1-2.4,2.5l0,7.4c0,1.3,1.1,2.5,2.5,2.4c1.3,0,2.5-1.1,2.4-2.5l0-7.4
				C402.3,337.4,401.2,336.3,399.8,336.3"/>
		</g>
	</g>
</g>
</svg>
